G04 Generated by Ultiboard 14.2 *
%FSLAX34Y34*%
%MOMM*%

%ADD10C,0.0001*%
%ADD11C,0.1270*%
%ADD12C,1.0000*%
%ADD13C,1.6088*%
%ADD14C,2.4978*%
%ADD15C,1.2446*%
%ADD16C,1.5000*%
%ADD17C,1.7526*%
%ADD18R,1.7526X1.7526*%


G04 ColorRGB 9900CC for the following layer *
%LNSolder Mask Bottom*%
%LPD*%
G54D10*
G54D11*
X-2540Y647700D02*
X-2540Y683184D01*
X-2540Y647700D02*
X20828Y647700D01*
X231140Y647700D02*
X207772Y647700D01*
X231140Y647700D02*
X231140Y683184D01*
X231140Y1002540D02*
X231140Y967056D01*
X231140Y1002540D02*
X207772Y1002540D01*
X-2540Y1002540D02*
X20828Y1002540D01*
X-2540Y1002540D02*
X-2540Y967056D01*
X-52540Y647700D02*
X-152540Y647700D01*
X-102540Y597700D02*
X-102540Y697700D01*
X-140040Y647700D02*
G75*
D01*
G02X-140040Y647700I37500J0*
G01*
X281140Y647700D02*
X381140Y647700D01*
X331140Y597700D02*
X331140Y697700D01*
X293640Y647700D02*
G75*
D01*
G02X293640Y647700I37500J0*
G01*
X318640Y647700D02*
G75*
D01*
G02X318640Y647700I12500J0*
G01*
X-52540Y1002540D02*
X-152540Y1002540D01*
X-102540Y952540D02*
X-102540Y1052540D01*
X-140040Y1002540D02*
G75*
D01*
G02X-140040Y1002540I37500J0*
G01*
X-127540Y1002540D02*
G75*
D01*
G02X-127540Y1002540I25000J0*
G01*
X-115040Y1002540D02*
G75*
D01*
G02X-115040Y1002540I12500J0*
G01*
G54D12*
X30480Y901700D03*
G54D13*
X157480Y949960D03*
X132080Y949960D03*
G54D14*
X187960Y731520D03*
X113877Y731520D03*
G54D15*
X167640Y878005D03*
X142240Y878005D03*
X116840Y878005D03*
G54D16*
X208280Y973120D03*
X208280Y833120D03*
X15240Y833420D03*
X155240Y833420D03*
G54D17*
X65480Y900040D03*
X30480Y900040D03*
X65480Y955040D03*
G54D18*
X30480Y955040D03*

M02*
