G04 Generated by Ultiboard 14.2 *
%FSLAX24Y24*%
%MOIN*%

%ADD10C,0.0001*%
%ADD11C,0.0100*%
%ADD12C,0.0050*%
%ADD13C,0.0633*%
%ADD14C,0.0490*%
%ADD15C,0.0983*%
%ADD16C,0.0690*%
%ADD17R,0.0690X0.0690*%
%ADD18C,0.0591*%
%ADD19R,0.0591X0.0591*%


G04 ColorRGB 00FF00 for the following layer *
%LNCopper Top*%
%LPD*%
G54D10*
G54D11*
X6200Y-5000D02*
X3400Y-2200D01*
X-4700Y-2900D02*
X550Y-2900D01*
X-5200Y-2400D02*
X-4700Y-2900D01*
X550Y-2900D02*
X800Y-3150D01*
X800Y-3200D01*
X-4100Y2300D02*
X-4100Y-2300D01*
X-4200Y-2400D02*
X-4100Y-2300D01*
X-3200Y-2400D02*
X-1300Y-500D01*
X3400Y-2200D02*
X800Y-2200D01*
X-1300Y-500D02*
X-1300Y2392D01*
X6000Y700D02*
X5188Y700D01*
X5000Y512D02*
X5188Y700D01*
X6200Y500D02*
X6000Y700D01*
X6200Y512D02*
X6300Y612D01*
X6300Y2100D01*
X-4200Y2400D02*
X-4100Y2300D01*
X4435Y2600D02*
X-1092Y2600D01*
X-1292Y2400D01*
X4600Y2435D02*
X4435Y2600D01*
X6000Y2400D02*
X6300Y2100D01*
G54D12*
X-5800Y-5600D02*
X-5800Y-4440D01*
X-5800Y-5600D02*
X-4450Y-5600D01*
X7700Y-5600D02*
X6350Y-5600D01*
X7700Y-5600D02*
X7700Y-4440D01*
X7700Y6000D02*
X7700Y4840D01*
X7700Y6000D02*
X6350Y6000D01*
X-5800Y6000D02*
X-4450Y6000D01*
X-5800Y6000D02*
X-5800Y4840D01*
X-7769Y-5600D02*
X-11706Y-5600D01*
X-9737Y-7569D02*
X-9737Y-3632D01*
X-11213Y-5600D02*
G75*
D01*
G02X-11213Y-5600I1476J0*
G01*
X9669Y-5600D02*
X13606Y-5600D01*
X11637Y-7569D02*
X11637Y-3632D01*
X10161Y-5600D02*
G75*
D01*
G02X10161Y-5600I1476J0*
G01*
X11145Y-5600D02*
G75*
D01*
G02X11145Y-5600I492J0*
G01*
X-7769Y6000D02*
X-11706Y6000D01*
X-9737Y4031D02*
X-9737Y7969D01*
X-11213Y6000D02*
G75*
D01*
G02X-11213Y6000I1476J0*
G01*
X-10721Y6000D02*
G75*
D01*
G02X-10721Y6000I984J0*
G01*
X-10229Y6000D02*
G75*
D01*
G02X-10229Y6000I492J0*
G01*
G54D13*
X800Y-3200D03*
X800Y-2200D03*
G54D14*
X-5200Y-2400D03*
X-4200Y-2400D03*
X-3200Y-2400D03*
G54D15*
X-4200Y2400D03*
X-1283Y2400D03*
G54D16*
X5978Y2435D03*
X4600Y2435D03*
X5978Y4600D03*
G54D17*
X4600Y4600D03*
G54D18*
X5000Y512D03*
X6200Y512D03*
G54D19*
X5000Y-5000D03*
X6200Y-5000D03*

M02*
