G04 Generated by Ultiboard 14.2 *
%FSLAX24Y24*%
%MOIN*%

%ADD10C,0.0001*%
%ADD11C,0.0080*%
%ADD12C,0.0061*%
%ADD13C,0.0079*%
%ADD14C,0.0100*%
%ADD15C,0.0039*%
%ADD16C,0.0050*%


G04 ColorRGB FFFF00 for the following layer *
%LNSilkscreen Top*%
%LPD*%
G54D10*
G54D11*
X-144Y-4830D02*
X-144Y-5127D01*
X189Y-5127D01*
X689Y-5127D02*
X356Y-5127D01*
X356Y-4979D01*
X356Y-4830D01*
X689Y-4830D01*
X356Y-4979D02*
X578Y-4979D01*
X856Y-5127D02*
X1078Y-5127D01*
X1189Y-5068D01*
X1189Y-4889D01*
X1078Y-4830D01*
X856Y-4830D01*
X911Y-4830D02*
X911Y-5127D01*
X1411Y-4889D02*
X1522Y-4830D01*
X1522Y-5127D01*
X1356Y-5127D02*
X1689Y-5127D01*
X-221Y-1127D02*
X-354Y-1222D01*
X-479Y-1329D01*
X-593Y-1445D01*
X-697Y-1572D01*
X-790Y-1706D01*
X-871Y-1849D01*
X-938Y-1998D01*
X-993Y-2152D01*
X-1034Y-2310D01*
X-1061Y-2471D01*
X-1074Y-2635D01*
X-1072Y-2798D01*
X-1057Y-2961D01*
X-1027Y-3122D01*
X-983Y-3279D01*
X-926Y-3433D01*
X-856Y-3580D01*
X-773Y-3721D01*
X-678Y-3854D01*
X-571Y-3979D01*
X-455Y-4093D01*
X-328Y-4197D01*
X-194Y-4290D01*
X-51Y-4371D01*
X98Y-4438D01*
X252Y-4493D01*
X410Y-4534D01*
X571Y-4561D01*
X735Y-4574D01*
X898Y-4572D01*
X1061Y-4557D01*
X1222Y-4527D01*
X1379Y-4483D01*
X1533Y-4426D01*
X1680Y-4356D01*
X1821Y-4273D01*
X1954Y-4178D01*
X2079Y-4071D01*
X2193Y-3955D01*
X2297Y-3828D01*
X2390Y-3694D01*
X2471Y-3551D01*
X2538Y-3402D01*
X2593Y-3248D01*
X2634Y-3090D01*
X2661Y-2929D01*
X2674Y-2765D01*
X2672Y-2602D01*
X2657Y-2439D01*
X2627Y-2278D01*
X2583Y-2121D01*
X2526Y-1967D01*
X2456Y-1820D01*
X2373Y-1679D01*
X2278Y-1546D01*
X2171Y-1421D01*
X2055Y-1307D01*
X1928Y-1203D01*
X1821Y-1127D01*
X800Y-4283D02*
X938Y-4277D01*
X1075Y-4259D01*
X1210Y-4229D01*
X1342Y-4188D01*
X1469Y-4135D01*
X1592Y-4071D01*
X1708Y-3997D01*
X1818Y-3913D01*
X1920Y-3820D01*
X2013Y-3718D01*
X2097Y-3608D01*
X2171Y-3492D01*
X2235Y-3369D01*
X2288Y-3242D01*
X2329Y-3110D01*
X2359Y-2975D01*
X2377Y-2838D01*
X2383Y-2700D01*
X2377Y-2562D01*
X2359Y-2425D01*
X2329Y-2290D01*
X2288Y-2158D01*
X2235Y-2031D01*
X2171Y-1908D01*
X2097Y-1792D01*
X2013Y-1682D01*
X1920Y-1580D01*
X1818Y-1487D01*
X1708Y-1403D01*
X1592Y-1329D01*
X1469Y-1265D01*
X1342Y-1212D01*
X1210Y-1171D01*
X1075Y-1141D01*
X938Y-1123D01*
X800Y-1117D01*
X662Y-1123D01*
X525Y-1141D01*
X390Y-1171D01*
X258Y-1212D01*
X131Y-1265D01*
X8Y-1329D01*
X-108Y-1403D01*
X-218Y-1487D01*
X-320Y-1580D01*
X-413Y-1682D01*
X-497Y-1792D01*
X-571Y-1908D01*
X-635Y-2031D01*
X-688Y-2158D01*
X-729Y-2290D01*
X-759Y-2425D01*
X-777Y-2562D01*
X-783Y-2700D01*
X-777Y-2838D01*
X-759Y-2975D01*
X-729Y-3110D01*
X-688Y-3242D01*
X-635Y-3369D01*
X-571Y-3492D01*
X-497Y-3608D01*
X-413Y-3718D01*
X-320Y-3820D01*
X-218Y-3913D01*
X-108Y-3997D01*
X8Y-4071D01*
X131Y-4135D01*
X258Y-4188D01*
X390Y-4229D01*
X525Y-4259D01*
X662Y-4277D01*
X800Y-4283D01*
X50Y-3117D02*
X300Y-3117D01*
X300Y-3283D02*
X307Y-3283D01*
X314Y-3282D01*
X322Y-3280D01*
X329Y-3278D01*
X335Y-3276D01*
X342Y-3272D01*
X348Y-3268D01*
X354Y-3264D01*
X359Y-3259D01*
X364Y-3254D01*
X368Y-3248D01*
X372Y-3242D01*
X376Y-3235D01*
X378Y-3229D01*
X380Y-3222D01*
X382Y-3214D01*
X383Y-3207D01*
X383Y-3200D01*
X383Y-3193D01*
X382Y-3186D01*
X380Y-3178D01*
X378Y-3171D01*
X376Y-3165D01*
X372Y-3158D01*
X368Y-3152D01*
X364Y-3146D01*
X359Y-3141D01*
X354Y-3136D01*
X348Y-3132D01*
X342Y-3128D01*
X335Y-3124D01*
X329Y-3122D01*
X322Y-3120D01*
X314Y-3118D01*
X307Y-3117D01*
X300Y-3117D01*
X217Y-3117D02*
X217Y-3283D01*
X1800Y-1117D02*
X-200Y-1117D01*
X133Y-2117D02*
X126Y-2117D01*
X119Y-2118D01*
X112Y-2120D01*
X105Y-2122D01*
X98Y-2124D01*
X92Y-2128D01*
X86Y-2132D01*
X80Y-2136D01*
X74Y-2141D01*
X70Y-2146D01*
X65Y-2152D01*
X61Y-2158D01*
X58Y-2165D01*
X55Y-2171D01*
X53Y-2178D01*
X51Y-2186D01*
X50Y-2193D01*
X50Y-2200D01*
X50Y-2207D01*
X51Y-2214D01*
X53Y-2222D01*
X55Y-2229D01*
X58Y-2235D01*
X61Y-2242D01*
X65Y-2248D01*
X70Y-2254D01*
X74Y-2259D01*
X80Y-2264D01*
X86Y-2268D01*
X92Y-2272D01*
X98Y-2276D01*
X105Y-2278D01*
X112Y-2280D01*
X119Y-2282D01*
X126Y-2283D01*
X133Y-2283D01*
X133Y-2283D01*
X300Y-2283D02*
X307Y-2283D01*
X314Y-2282D01*
X322Y-2280D01*
X329Y-2278D01*
X335Y-2276D01*
X342Y-2272D01*
X348Y-2268D01*
X354Y-2264D01*
X359Y-2259D01*
X364Y-2254D01*
X368Y-2248D01*
X372Y-2242D01*
X376Y-2235D01*
X378Y-2229D01*
X380Y-2222D01*
X382Y-2214D01*
X383Y-2207D01*
X383Y-2200D01*
X383Y-2193D01*
X382Y-2186D01*
X380Y-2178D01*
X378Y-2171D01*
X376Y-2165D01*
X372Y-2158D01*
X368Y-2152D01*
X364Y-2146D01*
X359Y-2141D01*
X354Y-2136D01*
X348Y-2132D01*
X342Y-2128D01*
X335Y-2124D01*
X329Y-2122D01*
X322Y-2120D01*
X314Y-2118D01*
X307Y-2117D01*
X300Y-2117D01*
X133Y-2117D02*
X300Y-2117D01*
X50Y-3283D02*
X300Y-3283D01*
X-4928Y-3051D02*
X-3471Y-3051D01*
X-3304Y-1989D02*
X-3343Y-1911D01*
X-3388Y-1837D01*
X-3439Y-1768D01*
X-3496Y-1703D01*
X-3559Y-1643D01*
X-3626Y-1589D01*
X-3698Y-1541D01*
X-3774Y-1500D01*
X-3853Y-1465D01*
X-3935Y-1438D01*
X-4019Y-1417D01*
X-4104Y-1404D01*
X-4191Y-1399D01*
X-4277Y-1401D01*
X-4363Y-1411D01*
X-4448Y-1428D01*
X-4531Y-1452D01*
X-4611Y-1484D01*
X-4689Y-1522D01*
X-4762Y-1567D01*
X-4832Y-1618D01*
X-4897Y-1675D01*
X-4956Y-1738D01*
X-5010Y-1805D01*
X-5058Y-1877D01*
X-5100Y-1953D01*
X-5115Y-1987D01*
X-3244Y-968D02*
X-3133Y-1027D01*
X-3022Y-1027D01*
X-2911Y-968D01*
X-3244Y-789D01*
X-3133Y-730D01*
X-3022Y-730D01*
X-2911Y-789D01*
X-2689Y-789D02*
X-2578Y-730D01*
X-2578Y-1027D01*
X-2744Y-1027D02*
X-2411Y-1027D01*
X2383Y-600D02*
X-4950Y-600D01*
X-4950Y5400D02*
X2383Y5400D01*
X1717Y400D02*
X-4283Y400D01*
X-4283Y4400D02*
X1717Y4400D01*
X1550Y567D02*
X-4117Y567D01*
X-4117Y4233D02*
X1550Y4233D01*
X-5450Y4900D02*
X-5450Y-100D01*
X-4283Y400D02*
X-4283Y1817D01*
X-4117Y567D02*
X-4117Y1817D01*
X-5450Y-100D02*
X-5448Y-144D01*
X-5442Y-187D01*
X-5433Y-229D01*
X-5420Y-271D01*
X-5403Y-311D01*
X-5383Y-350D01*
X-5360Y-387D01*
X-5333Y-421D01*
X-5304Y-454D01*
X-5271Y-483D01*
X-5237Y-510D01*
X-5200Y-533D01*
X-5161Y-553D01*
X-5121Y-570D01*
X-5079Y-583D01*
X-5037Y-592D01*
X-4994Y-598D01*
X-4950Y-600D01*
X-4950Y-600D01*
X-4283Y2983D02*
X-4283Y4400D01*
X-4117Y2983D02*
X-4117Y4233D01*
X-4867Y2233D02*
X-4867Y2567D01*
X-4950Y2483D01*
X-4950Y5400D02*
X-4994Y5398D01*
X-5037Y5392D01*
X-5079Y5383D01*
X-5121Y5370D01*
X-5161Y5353D01*
X-5200Y5333D01*
X-5237Y5310D01*
X-5271Y5283D01*
X-5304Y5254D01*
X-5333Y5221D01*
X-5360Y5187D01*
X-5383Y5150D01*
X-5403Y5111D01*
X-5420Y5071D01*
X-5433Y5029D01*
X-5442Y4987D01*
X-5448Y4944D01*
X-5450Y4900D01*
X-5450Y4900D01*
X-33Y3983D02*
X-33Y817D01*
X1717Y4400D02*
X1717Y400D01*
X1550Y4233D02*
X1550Y567D01*
X2883Y4900D02*
X2883Y-100D01*
X2383Y-600D02*
X2427Y-598D01*
X2470Y-592D01*
X2513Y-583D01*
X2554Y-570D01*
X2595Y-553D01*
X2633Y-533D01*
X2670Y-510D01*
X2705Y-483D01*
X2737Y-454D01*
X2766Y-421D01*
X2793Y-387D01*
X2816Y-350D01*
X2837Y-311D01*
X2853Y-271D01*
X2866Y-229D01*
X2876Y-187D01*
X2881Y-144D01*
X2883Y-100D01*
X2883Y-100D01*
X-533Y2233D02*
X-700Y2233D01*
X-617Y2400D02*
X-609Y2400D01*
X-602Y2401D01*
X-595Y2403D01*
X-588Y2405D01*
X-581Y2408D01*
X-575Y2411D01*
X-569Y2415D01*
X-563Y2420D01*
X-558Y2424D01*
X-553Y2430D01*
X-548Y2436D01*
X-544Y2442D01*
X-541Y2448D01*
X-538Y2455D01*
X-536Y2462D01*
X-535Y2469D01*
X-534Y2476D01*
X-533Y2483D01*
X-534Y2491D01*
X-535Y2498D01*
X-536Y2505D01*
X-538Y2512D01*
X-541Y2519D01*
X-544Y2525D01*
X-548Y2531D01*
X-553Y2537D01*
X-558Y2542D01*
X-563Y2547D01*
X-569Y2552D01*
X-575Y2556D01*
X-581Y2559D01*
X-588Y2562D01*
X-595Y2564D01*
X-602Y2565D01*
X-609Y2566D01*
X-617Y2567D01*
X-624Y2566D01*
X-631Y2565D01*
X-638Y2564D01*
X-645Y2562D01*
X-652Y2559D01*
X-658Y2556D01*
X-664Y2552D01*
X-670Y2547D01*
X-676Y2542D01*
X-680Y2537D01*
X-685Y2531D01*
X-689Y2525D01*
X-692Y2519D01*
X-695Y2512D01*
X-697Y2505D01*
X-699Y2498D01*
X-700Y2491D01*
X-700Y2483D01*
X-617Y2400D02*
X-624Y2400D01*
X-631Y2399D01*
X-638Y2397D01*
X-645Y2395D01*
X-652Y2392D01*
X-658Y2389D01*
X-664Y2385D01*
X-670Y2380D01*
X-676Y2376D01*
X-680Y2370D01*
X-685Y2364D01*
X-689Y2358D01*
X-692Y2352D01*
X-695Y2345D01*
X-697Y2338D01*
X-699Y2331D01*
X-700Y2324D01*
X-700Y2317D01*
X-700Y2233D02*
X-700Y2317D01*
X2883Y4900D02*
X2881Y4944D01*
X2876Y4987D01*
X2866Y5029D01*
X2853Y5071D01*
X2836Y5111D01*
X2816Y5150D01*
X2793Y5187D01*
X2766Y5221D01*
X2737Y5254D01*
X2705Y5283D01*
X2670Y5310D01*
X2633Y5333D01*
X2595Y5353D01*
X2554Y5370D01*
X2513Y5383D01*
X2470Y5392D01*
X2427Y5398D01*
X2383Y5400D01*
X4639Y-2233D02*
X4639Y-1839D01*
X4796Y-1839D01*
X4874Y-1918D01*
X4874Y-1957D01*
X4796Y-2036D01*
X4639Y-2036D01*
X4678Y-2036D02*
X4874Y-2233D01*
X5031Y-1918D02*
X5110Y-1839D01*
X5110Y-2233D01*
X4992Y-2233D02*
X5227Y-2233D01*
X5862Y-2205D02*
X5862Y-1811D01*
X6019Y-1811D01*
X6097Y-1890D01*
X6097Y-1929D01*
X6019Y-2008D01*
X5862Y-2008D01*
X5901Y-2008D02*
X6097Y-2205D01*
X6215Y-1890D02*
X6293Y-1811D01*
X6372Y-1811D01*
X6450Y-1890D01*
X6450Y-1929D01*
X6215Y-2205D01*
X6450Y-2205D01*
X6450Y-2165D01*
G54D12*
X-4361Y-3454D02*
X-4283Y-3532D01*
X-4204Y-3532D01*
X-4126Y-3454D01*
X-4126Y-3218D01*
X-4204Y-3139D01*
X-4283Y-3139D01*
X-4361Y-3218D01*
X-4361Y-3454D01*
X-4204Y-3454D02*
X-4126Y-3532D01*
X-3970Y-3218D02*
X-3892Y-3139D01*
X-3892Y-3532D01*
X-4009Y-3532D02*
X-3774Y-3532D01*
X4361Y1054D02*
X4282Y1133D01*
X4204Y1133D01*
X4126Y1054D01*
X4126Y739D01*
X3969Y818D02*
X3890Y739D01*
X3890Y1133D01*
X4008Y1133D02*
X3773Y1133D01*
G54D13*
X-4934Y-3053D02*
X-5037Y-2774D01*
X-3469Y-3051D02*
X-3371Y-2768D01*
G54D14*
X3754Y5604D02*
X6824Y5604D01*
X6824Y1431D01*
X3754Y1431D01*
X3754Y5604D01*
G54D15*
X4492Y-3819D02*
X5496Y-3819D01*
X5496Y-669D01*
X4492Y-669D01*
X4492Y-3819D01*
X5000Y-4449D02*
X5000Y-3819D01*
X5000Y-669D02*
X5000Y-79D01*
X5692Y-3819D02*
X6696Y-3819D01*
X6696Y-669D01*
X5692Y-669D01*
X5692Y-3819D01*
X6200Y-4449D02*
X6200Y-3819D01*
X6200Y-669D02*
X6200Y-79D01*
G54D16*
X-5800Y-5600D02*
X-5800Y-4440D01*
X-5800Y-5600D02*
X-4450Y-5600D01*
X7700Y-5600D02*
X6350Y-5600D01*
X7700Y-5600D02*
X7700Y-4440D01*
X7700Y6000D02*
X7700Y4840D01*
X7700Y6000D02*
X6350Y6000D01*
X-5800Y6000D02*
X-4450Y6000D01*
X-5800Y6000D02*
X-5800Y4840D01*
X-7769Y-5600D02*
X-11706Y-5600D01*
X-9737Y-7569D02*
X-9737Y-3632D01*
X-11213Y-5600D02*
G75*
D01*
G02X-11213Y-5600I1476J0*
G01*
X9669Y-5600D02*
X13606Y-5600D01*
X11637Y-7569D02*
X11637Y-3632D01*
X10161Y-5600D02*
G75*
D01*
G02X10161Y-5600I1476J0*
G01*
X11145Y-5600D02*
G75*
D01*
G02X11145Y-5600I492J0*
G01*
X-7769Y6000D02*
X-11706Y6000D01*
X-9737Y4031D02*
X-9737Y7969D01*
X-11213Y6000D02*
G75*
D01*
G02X-11213Y6000I1476J0*
G01*
X-10721Y6000D02*
G75*
D01*
G02X-10721Y6000I984J0*
G01*
X-10229Y6000D02*
G75*
D01*
G02X-10229Y6000I492J0*
G01*

M02*
